<svg width="96" height="96" xmlns="http://www.w3.org/2000/svg" xmlns:xlink="http://www.w3.org/1999/xlink" overflow="hidden"><defs><clipPath id="clip0"><rect x="0" y="0" width="96" height="96"/></clipPath></defs><g clip-path="url(#clip0)"><path d="M47.979 10C27.0038 10 10 27.0038 10 47.979 10 68.9542 27.0038 85.958 47.979 85.958 68.9542 85.958 85.958 68.9542 85.958 47.979 85.9674 27.0132 68.9788 10.0094 48.013 10 48.0017 10 47.9903 10 47.979 10ZM47.979 83.958C28.1083 83.958 12 67.8497 12 47.979 12 28.1083 28.1083 12 47.979 12 67.8497 12 83.958 28.1083 83.958 47.979 83.9354 67.8403 67.8403 83.9354 47.979 83.958Z"/><path d="M45.191 36.774C43.7554 37.3971 42.4681 38.3173 41.414 39.474 40.3536 40.6517 39.5379 42.0284 39.014 43.524 38.4445 45.1423 38.1609 46.8474 38.176 48.563 38.1592 50.1796 38.4259 51.7865 38.964 53.311 39.4528 54.699 40.2152 55.9749 41.206 57.063 42.1884 58.1243 43.3852 58.9645 44.717 59.528 46.1672 60.1355 47.7269 60.4378 49.299 60.416 51.4667 60.454 53.6158 60.01 55.591 59.116L55.591 56.962C53.734 57.9541 51.6529 58.4514 49.548 58.406 48.1932 58.4344 46.8491 58.1611 45.613 57.606 44.5223 57.1038 43.556 56.3669 42.783 55.448 42.0079 54.5104 41.4239 53.4301 41.064 52.268 40.6703 51.0143 40.4743 49.707 40.483 48.393 40.4685 46.9585 40.6874 45.5312 41.131 44.167 41.5293 42.9364 42.1669 41.7965 43.007 40.813 43.8375 39.8601 44.8699 39.1042 46.029 38.6 47.324 38.0475 48.7212 37.7748 50.129 37.8 52.0249 37.7901 53.8963 38.2279 55.591 39.078L55.591 36.725C53.8551 36.0795 52.0138 35.7641 50.162 35.795 48.4547 35.769 46.761 36.1026 45.191 36.774Z"/><path d="M48 25C35.2975 25 25 35.2975 25 48 25 60.7025 35.2975 71 48 71 60.7025 71 71 60.7025 71 48 70.9857 35.3034 60.6966 25.0143 48 25ZM48 69C36.402 69 27 59.598 27 48 27 36.402 36.402 27 48 27 59.598 27 69 36.402 69 48 68.9868 59.5925 59.5925 68.9868 48 69Z"/></g></svg>